<?xml version="1.0" encoding="UTF-8"?>
<svg width="111px" height="111px" viewBox="0 0 111 111" version="1.1" xmlns="http://www.w3.org/2000/svg" xmlns:xlink="http://www.w3.org/1999/xlink">
    <!-- Generator: Sketch 52.2 (67145) - http://www.bohemiancoding.com/sketch -->
    <title>Icon wrap</title>
    <desc>Created with Sketch.</desc>
    <g id="Dashboard-Fall-2018" stroke="none" stroke-width="1" fill="none" fill-rule="evenodd">
        <g id="Polling-Lookup-[no-results]" transform="translate(-376.000000, -287.000000)">
            <g id="No-results-message" transform="translate(204.000000, 287.000000)">
                <g id="Results">
                    <g id="Icon-wrap" transform="translate(172.000000, 0.000000)">
                        <circle id="Oval" stroke="#006DDB" stroke-width="2" cx="55.5" cy="55.5" r="54.5"></circle>
                        <g id="Polling-place-icon" transform="translate(31.000000, 31.000000)" fill="#006DDB" fill-rule="nonzero">
                            <path d="M18.8288252,13.6509077 C18.8288498,15.8375867 20.1474602,17.8084561 22.1686853,18.6428507 C24.1899104,19.4772453 26.5148165,19.0104788 28.057355,17.4605948 C29.5998935,15.9107109 30.0556102,13.5836136 29.211623,11.5663751 C28.3676359,9.54913669 26.3905246,8.23990392 24.2038701,8.25026732 C21.2331273,8.26900695 18.8334519,10.6801094 18.8288252,13.6509077 Z M24.2038701,9.95663078 C25.7003512,9.9462623 27.0552542,10.8397403 27.6351314,12.2193437 C28.2150087,13.5989471 27.9052912,15.1921012 26.8507788,16.2539707 C25.7962664,17.3158402 24.205304,17.6366265 22.8217024,17.0663548 C21.4381008,16.4960831 20.5352246,15.1474247 20.5351887,13.6509077 C20.5397764,11.6224829 22.1755263,9.9753208 24.2038701,9.95663078 Z" id="Shape"></path>
                            <path d="M10.5529624,13.6509077 C10.48421,16.0188623 11.0123289,18.3660573 12.0886895,20.4763615 C15.057762,26.33772 24.2038701,40.2104549 24.2038701,40.2104549 C24.2038701,40.2104549 33.3499782,26.33772 36.3190507,20.4763615 C37.3954113,18.3660573 37.9235301,16.0188623 37.8547778,13.6509077 C37.8547778,6.11171954 31.7430582,0 24.2038701,0 C16.664682,0 10.5529624,6.11171954 10.5529624,13.6509077 Z M36.1484143,13.6509077 C36.2184101,15.7525814 35.7515256,17.8374114 34.7918554,19.7084979 C32.6077101,24.0341293 26.8828607,32.966942 24.2038701,37.0963416 C21.5248795,32.966942 15.8000301,24.0426611 13.6158848,19.7170298 C12.6547955,17.8433964 12.1878703,15.7554477 12.2593259,13.6509077 C12.2593259,7.05411806 17.6070805,1.70636346 24.2038701,1.70636346 C30.8006597,1.70636346 36.1484143,7.05411806 36.1484143,13.6509077 Z" id="Shape"></path>
                            <polygon id="Shape" points="34.9368963 28.4109516 33.8874827 30.117315 41.438141 30.117315 45.9429406 46.3277679 2.43067236 46.3277679 6.96959916 30.117315 14.5202575 30.117315 13.4708439 28.4109516 5.67276293 28.4109516 0.220931682 48.0341314 48.1868085 48.0341314 42.7349773 28.4109516"></polygon>
                        </g>
                    </g>
                </g>
            </g>
        </g>
    </g>
</svg>