<?xml version="1.0" encoding="UTF-8"?>
<svg width="62px" height="46px" viewBox="0 0 62 46" version="1.1" xmlns="http://www.w3.org/2000/svg" xmlns:xlink="http://www.w3.org/1999/xlink">
    <!-- Generator: Sketch 51.1 (57501) - http://www.bohemiancoding.com/sketch -->
    <title>Icons / actions / icon-postcard</title>
    <desc>Created with Sketch.</desc>
    <defs></defs>
    <g id="Icons-/-actions-/-icon-postcard" stroke="none" stroke-width="1" fill="none" fill-rule="evenodd">
        <g id="Letter-icon" fill="#006DDB" fill-rule="nonzero">
            <path d="M59.84,0 L2,0 C0.8954305,0 0,0.8954305 0,2 L0,43.5 C0,44.6045695 0.8954305,45.5 2,45.5 L59.84,45.5 C60.9445695,45.5 61.84,44.6045695 61.84,43.5 L61.84,2 C61.84,0.8954305 60.9445695,0 59.84,0 Z M2,43.5 L2,2 L59.84,2 L59.84,43.5 L2,43.5 Z M11.01,27.41 C11.01,26.9957864 11.4577153,26.66 12.01,26.66 L24.17,26.66 C24.7222847,26.66 25.17,26.9957864 25.17,27.41 C25.17,27.8242136 24.7222847,28.16 24.17,28.16 L12,28.16 C11.451597,28.1600206 11.005484,27.8287817 11,27.4175 L11.01,27.41 Z M39.18,34.41 C39.18,34.8242136 38.7322847,35.16 38.18,35.16 L12,35.16 C11.4477153,35.16 11,34.8242136 11,34.41 C11,33.9957864 11.4477153,33.66 12,33.66 L38.17,33.66 C38.4369582,33.65999 38.6928394,33.7400363 38.8806659,33.8823149 C39.0684924,34.0245935 39.1726696,34.2172913 39.17,34.4175 L39.18,34.41 Z" id="Shape"></path>
            <path d="M47.3387097,19.7268319 C49.632721,19.7268319 51.5065274,17.8056494 51.5065274,15.4388358 C51.5065274,13.0720221 49.632721,11.1508396 47.3387097,11.1508396 C45.0446983,11.1508396 43.1708919,13.0720221 43.1708919,15.4388358 C43.1708919,17.8056494 45.0446983,19.7268319 47.3387097,19.7268319 Z M47.3387097,20.8977239 C44.391399,20.8977239 42,18.4458623 42,15.4388358 C42,12.4318092 44.391399,9.97994769 47.3387097,9.97994769 C50.2860204,9.97994769 52.6774194,12.4318092 52.6774194,15.4388358 C52.6774194,18.4458623 50.2860204,20.8977239 47.3387097,20.8977239 Z" id="Shape"></path>
        </g>
    </g>
</svg>