<?xml version="1.0" encoding="UTF-8"?>
<svg width="63px" height="39px" viewBox="0 0 63 39" version="1.1" xmlns="http://www.w3.org/2000/svg" xmlns:xlink="http://www.w3.org/1999/xlink">
    <!-- Generator: Sketch 51.1 (57501) - http://www.bohemiancoding.com/sketch -->
    <title>Icons / actions / icon-impact</title>
    <desc>Created with Sketch.</desc>
    <defs></defs>
    <g id="Icons-/-actions-/-icon-impact" stroke="none" stroke-width="1" fill="none" fill-rule="evenodd">
        <g id="icon-impact" fill="#006DDB" fill-rule="nonzero">
            <g id="Group">
                <path d="M32.5,37.2580645 C35.1543998,37.2580645 37.3225806,35.0350648 37.3225806,32.2964255 C37.3225806,29.5577861 35.1543998,27.3347864 32.5,27.3347864 C29.8456002,27.3347864 27.6774194,29.5577861 27.6774194,32.2964255 C27.6774194,35.0350648 29.8456002,37.2580645 32.5,37.2580645 Z M32.5,38.6129032 C29.0896677,38.6129032 26.3225806,35.775855 26.3225806,32.2964255 C26.3225806,28.816996 29.0896677,25.9799477 32.5,25.9799477 C35.9103323,25.9799477 38.6774194,28.816996 38.6774194,32.2964255 C38.6774194,35.775855 35.9103323,38.6129032 32.5,38.6129032 Z" id="Shape"></path>
                <path d="M49.8218217,29.7332171 C45.1151039,23.6555733 38.8015069,20.2389187 32.0457182,20.1129739 C25.2794368,19.967653 18.9808292,23.127574 14.1452014,28.9533281 L13,27.8505038 C18.1399156,21.6614473 24.9526646,18.3158385 32.0712003,18.4595448 C39.2811723,18.5943704 46.0039839,22.2217404 51,28.6739891 L49.8218217,29.7332171 Z" id="Shape"></path>
                <path d="M56.8049368,23.581517 C50.3917359,15.5444675 41.7845452,11.0273508 32.5691797,10.8604916 C23.4404792,10.7095238 14.7542258,14.8476317 8.16161337,22.5509628 L7,21.4655835 C13.8997406,13.404697 22.9265719,9.04808298 32.5965477,9.23321718 C42.2710848,9.40802208 51.2933548,14.1341101 58,22.5390443 L56.8049368,23.581517 Z" id="Shape"></path>
                <path d="M61.8135137,17.4298169 C53.8160536,7.43842048 43.0833352,1.8220945 31.5898166,1.61521874 C20.1853599,1.4350873 9.37263676,6.572374 1.15327655,16.1492318 L0,15.0747357 C8.5242841,5.14312074 19.7566551,-0.187669171 31.6169881,0.00504788251 C43.5663832,0.219789784 54.7112016,6.04141874 63,16.3977974 L61.8135137,17.4298169 Z" id="Shape"></path>
            </g>
        </g>
    </g>
</svg>