<?xml version="1.0" encoding="UTF-8"?>
<svg width="34px" height="70px" viewBox="0 0 34 70" version="1.1" xmlns="http://www.w3.org/2000/svg" xmlns:xlink="http://www.w3.org/1999/xlink">
    <!-- Generator: Sketch 51.2 (57519) - http://www.bohemiancoding.com/sketch -->
    <title>Icons / actions / icon-volunteer</title>
    <desc>Created with Sketch.</desc>
    <defs>
        <polygon id="path-1" points="0 0 34 0 34 70 0 70"></polygon>
    </defs>
    <g id="Icons-/-actions-/-icon-volunteer" stroke="none" stroke-width="1" fill="none" fill-rule="evenodd">
        <g id="Group-3">
            <mask id="mask-2" fill="white">
                <use xlink:href="#path-1"></use>
            </mask>
            <g id="Clip-2"></g>
            <path d="M4.8294753,26.8713167 C3.74956235,26.8713167 2.66804,27.2116272 1.76355256,27.8922482 C3.81232928,29.9567985 13.2273676,39.8403876 14.7353831,40.8386317 C17.0336181,42.1220884 21.0281694,42.9485567 23.6225355,42.4397115 C24.5189759,42.2646947 24.8762646,43.6340393 23.8961349,43.8706361 C21.4417874,44.4621282 18.6816522,44.1785361 16.3367444,43.241872 C16.18546,44.4864361 16.0969425,44.2579419 15.8684065,48.1682715 C15.2841913,55.1494982 14.6822727,62.321947 14.8914957,68.0926407 L15.3131607,68.5382854 L29.3021373,68.543147 L29.3021373,68.5415265 L29.7221928,68.1607028 C29.5773461,65.5548967 29.4196241,62.9879833 29.2683397,60.4826498 C28.4475415,47.0306621 27.7329642,54.7994646 29.1572905,40.2779296 C29.1685564,40.112636 29.2361516,39.9489628 29.3616854,39.8225618 C32.5563608,36.5653042 32.5563608,32.3276283 32.5563608,27.9278997 L32.553142,27.9278997 L32.553142,11.3709839 C32.553142,8.49130891 28.1642857,8.44755471 28.1642857,11.3709839 L28.1642857,22.960987 C28.1642857,23.9252001 26.6868489,23.9252001 26.6868489,22.960987 L26.6868489,7.15437483 C26.6868489,4.25525352 22.299602,4.25201247 22.299602,7.15437483 L22.299602,22.960987 C22.299602,23.9252001 20.8221652,23.9252001 20.8221652,22.960987 L20.8221652,3.71399778 C20.8221652,0.787327528 16.4349183,0.82459963 16.4349183,3.71399778 L16.4349183,22.960987 C16.4349183,23.9252001 14.9558721,23.9252001 14.9558721,22.960987 L14.9558721,7.34559691 C14.9558721,4.46592192 10.5686251,4.42378824 10.5686251,7.34559691 L10.5686251,27.7771908 C10.5686251,28.6619981 10.8615375,28.7235781 11.6710698,29.5127743 C16.5733274,28.7965017 19.5555609,30.2096006 21.1746256,35.0744201 C21.4804131,35.9835353 20.1075879,36.4453852 19.8066286,35.5378906 C17.395735,28.2811744 11.9462786,31.8074394 10.9210856,30.8059542 C9.16039292,29.089817 7.47856129,26.8713167 4.8294753,26.8713167 M0.191160692,28.3719239 C-1.15913284,27.013923 4.94213387,23.3758417 9.12176712,27.013923 L9.12176712,7.34559691 C9.12176712,4.35086456 12.5803855,2.57314736 14.9848414,4.44485508 C14.9848414,-1.61429225 22.272242,-1.28532544 22.272242,4.25525352 C24.676698,2.3770637 28.1369257,4.15153984 28.1369257,7.15437483 L28.1369257,8.46862155 C30.5413817,6.5952933 34,8.36328735 34,11.3709839 L34,27.9278997 L33.9983906,27.9278997 C33.9983906,32.5545019 33.9983906,37.0109489 30.5719604,40.6538917 C29.1926975,54.9436914 29.8976183,47.0711753 30.7103695,60.3983825 L31.1690509,68.1801491 C31.193192,69.1411211 30.377222,69.9513842 29.3021373,70 L29.3021373,69.9967589 L15.3131607,69.9951384 L15.3131607,69.9967589 C14.2911865,69.9967589 13.4864823,69.165429 13.4494659,68.142877 C13.2354146,62.2538849 13.8373333,55.0538872 14.4247673,48.0499731 C15.0363425,42.6050052 13.5589057,41.7671932 13.2708216,41.538699 C9.018765,37.1454525 4.50115601,32.7133135 0.191160692,28.3719239" id="Fill-1" fill="#006DDB" mask="url(#mask-2)"></path>
        </g>
    </g>
</svg>