<?xml version="1.0" encoding="UTF-8"?>
<svg width="37px" height="37px" viewBox="0 0 37 37" version="1.1" xmlns="http://www.w3.org/2000/svg" xmlns:xlink="http://www.w3.org/1999/xlink">
    <!-- Generator: Sketch 51.1 (57501) - http://www.bohemiancoding.com/sketch -->
    <title>Icons / actions / icon-commit</title>
    <desc>Created with Sketch.</desc>
    <defs>
        <polygon id="path-1" points="0 0.0856842105 36.3624316 0.0856842105 36.3624316 36.9998053 0 36.9998053"></polygon>
    </defs>
    <g id="Icons-/-actions-/-icon-commit" stroke="none" stroke-width="1" fill="none" fill-rule="evenodd">
        <g id="Group-6">
            <g id="Group-3">
                <mask id="mask-2" fill="white">
                    <use xlink:href="#path-1"></use>
                </mask>
                <g id="Clip-2"></g>
                <path d="M33.2038,0.0854894737 L3.15785263,0.0854894737 C1.41301053,0.0854894737 -0.000778947368,1.50122632 -0.000778947368,3.24412105 L-0.000778947368,33.8411737 C-0.000778947368,35.5840684 1.41301053,36.9998053 3.15785263,36.9998053 L33.2038,36.9998053 C34.9486421,36.9998053 36.3624316,35.5840684 36.3624316,33.8411737 L36.3624316,3.24412105 C36.3624316,1.50122632 34.9486421,0.0854894737 33.2038,0.0854894737 M33.2038,2.03285789 C33.8717474,2.03285789 34.4150632,2.57617368 34.4150632,3.24412105 L34.4150632,33.8411737 C34.4150632,34.5091211 33.8717474,35.0524368 33.2038,35.0524368 L3.15785263,35.0524368 C2.49185263,35.0524368 1.94658947,34.5091211 1.94658947,33.8411737 L1.94658947,3.24412105 C1.94658947,2.57617368 2.49185263,2.03285789 3.15785263,2.03285789 L33.2038,2.03285789" id="Fill-1" fill="#006DDB" mask="url(#mask-2)"></path>
            </g>
            <path d="M9.30404876,19.6046283 L11.9642344,22.3226457 C12.5758078,22.9473645 13.567634,22.9162921 14.1427665,22.2572301 L27.9316861,6.41848237 C28.906084,5.29987592 30.5918717,6.64089535 29.7901719,7.89687452 L15.9109423,29.6573678 C14.6735361,31.5969398 11.8580805,31.3974223 10.8900201,29.3024883 L7.14136058,21.1925915 C6.49176193,19.7845211 8.23141879,18.5089173 9.30404876,19.6046283" id="Fill-4" fill="#006DDB"></path>
        </g>
    </g>
</svg>