<?xml version="1.0" encoding="UTF-8"?>
<svg width="111px" height="111px" viewBox="0 0 111 111" version="1.1" xmlns="http://www.w3.org/2000/svg" xmlns:xlink="http://www.w3.org/1999/xlink">
    <!-- Generator: Sketch 52.2 (67145) - http://www.bohemiancoding.com/sketch -->
    <title>Icon wrap</title>
    <desc>Created with Sketch.</desc>
    <g id="Dashboard-Fall-2018" stroke="none" stroke-width="1" fill="none" fill-rule="evenodd">
        <g id="Polling-Lookup-[confirmation]" transform="translate(-895.000000, -267.000000)" stroke="#006DDB">
            <g id="Form-+-Quote" transform="translate(299.000000, 141.000000)">
                <g id="Actions" transform="translate(0.000000, 115.000000)">
                    <g id="Calendar" transform="translate(490.000000, 11.000000)">
                        <g id="Icon-wrap" transform="translate(106.000000, 0.000000)">
                            <circle id="Oval" stroke-width="2" cx="55.5" cy="55.5" r="54.5"></circle>
                            <g id="noun_Calendar_1585317" transform="translate(35.000000, 35.000000)" fill="#006DDB" fill-rule="nonzero">
                                <g id="Group">
                                    <path d="M36.4264799,3.57142857 L29.2840328,3.57142857 L29.2840328,0.714285714 C29.2840328,0.31924667 28.9648045,0 28.5697881,0 C28.1747718,0 27.8555434,0.31924667 27.8555434,0.714285714 L27.8555434,7.14285714 C27.8555434,7.53789619 28.1747718,7.85714286 28.5697881,7.85714286 C28.9648045,7.85714286 29.2840328,7.53789619 29.2840328,7.14285714 L29.2840328,5 L36.4264799,5 C37.6092324,5 38.569214,5.96233349 38.569214,7.14285714 L38.569214,13.5714286 L1.42848941,13.5714286 L1.42848941,7.14285714 C1.42848941,5.96003675 2.39076764,5 3.57122352,5 L10.2851811,5 L10.2851811,3.57142857 L3.57122352,3.57142857 C1.60303152,3.57142857 0,5.17455214 0,7.14285714 L0,36.4285714 C0,38.3968764 1.60303152,40 3.57122352,40 L36.4287765,40 C38.3969685,40 40,38.3968764 40,36.4285714 L40,7.14285714 C39.9977034,5.1722554 38.3969685,3.57142857 36.4264799,3.57142857 Z M38.569214,36.4285714 C38.569214,37.6113918 37.6069358,38.5714286 36.4264799,38.5714286 L3.57122352,38.5714286 C2.38847103,38.5714286 1.42848941,37.6090951 1.42848941,36.4285714 L1.42848941,15 L38.5715106,15 L38.5715106,36.4285714 L38.569214,36.4285714 Z" id="Shape"></path>
                                    <path d="M10.7272727,8 C11.1294943,8 11.4545455,7.67494885 11.4545455,7.27272727 L11.4545455,5.09090909 L11.435791,5.09090909 L11.435791,3.63636364 L11.4545455,3.63636364 L11.4545455,0.727272727 C11.4545455,0.325051155 11.1294943,0 10.7272727,0 C10.3250512,0 10,0.325051155 10,0.727272727 L10,7.27272727 C10,7.67494885 10.3250512,8 10.7272727,8 Z" id="Shape"></path>
                                    <rect id="Rectangle" x="15" y="3.5" width="9" height="1.5"></rect>
                                </g>
                            </g>
                        </g>
                    </g>
                </g>
            </g>
        </g>
    </g>
</svg>