<?xml version="1.0" encoding="UTF-8"?>
<svg width="61px" height="66px" viewBox="0 0 61 66" version="1.1" xmlns="http://www.w3.org/2000/svg" xmlns:xlink="http://www.w3.org/1999/xlink">
    <!-- Generator: Sketch 51.1 (57501) - http://www.bohemiancoding.com/sketch -->
    <title>Icons / actions / icon-house-party</title>
    <desc>Created with Sketch.</desc>
    <defs></defs>
    <g id="Icons-/-actions-/-icon-house-party" stroke="none" stroke-width="1" fill="none" fill-rule="evenodd">
        <g id="noun_Home_872955" fill="#006DDB" fill-rule="nonzero">
            <path d="M8.55694444,56.8486111 L14.9958333,56.8486111 C15.5041667,56.8486111 15.8430556,56.5097222 15.8430556,56.0013889 L15.8430556,43.8013889 C15.8430556,43.2930556 15.5041667,42.9541667 14.9958333,42.9541667 L8.55694444,42.9541667 C8.04861111,42.9541667 7.70972222,43.2930556 7.70972222,43.8013889 L7.70972222,56.0013889 C7.70972222,56.425 8.04861111,56.8486111 8.55694444,56.8486111 Z M9.40416667,55.1541667 L9.40416667,50.7486111 L14.1486111,50.7486111 L14.1486111,55.1541667 L9.40416667,55.1541667 Z M14.1486111,44.6486111 L14.1486111,49.0541667 L9.40416667,49.0541667 L9.40416667,44.6486111 L14.1486111,44.6486111 Z" id="Shape"></path>
            <path d="M19.5708333,56.8486111 L26.0097222,56.8486111 C26.5180556,56.8486111 26.8569444,56.5097222 26.8569444,56.0013889 L26.8569444,43.8013889 C26.8569444,43.2930556 26.5180556,42.9541667 26.0097222,42.9541667 L19.5708333,42.9541667 C19.0625,42.9541667 18.7236111,43.2930556 18.7236111,43.8013889 L18.7236111,56.0013889 C18.7236111,56.425 19.1472222,56.8486111 19.5708333,56.8486111 Z M20.4180556,55.1541667 L20.4180556,50.7486111 L25.1625,50.7486111 L25.1625,55.1541667 L20.4180556,55.1541667 Z M25.2472222,44.6486111 L25.2472222,49.0541667 L20.5027778,49.0541667 L20.5027778,44.6486111 L25.2472222,44.6486111 Z" id="Shape"></path>
            <path d="M8.55694444,34.1430556 L14.9958333,34.1430556 C15.5041667,34.1430556 15.8430556,33.8041667 15.8430556,33.2958333 L15.8430556,21.0958333 C15.8430556,20.5875 15.5041667,20.2486111 14.9958333,20.2486111 L8.55694444,20.2486111 C8.04861111,20.2486111 7.70972222,20.5875 7.70972222,21.0958333 L7.70972222,33.2958333 C7.70972222,33.8041667 8.04861111,34.1430556 8.55694444,34.1430556 Z M9.40416667,32.4486111 L9.40416667,28.0430556 L14.1486111,28.0430556 L14.1486111,32.4486111 L9.40416667,32.4486111 Z M14.1486111,21.9430556 L14.1486111,26.3486111 L9.40416667,26.3486111 L9.40416667,21.9430556 L14.1486111,21.9430556 Z" id="Shape"></path>
            <path d="M19.5708333,34.1430556 L26.0097222,34.1430556 C26.5180556,34.1430556 26.8569444,33.8041667 26.8569444,33.2958333 L26.8569444,21.0958333 C26.8569444,20.5875 26.5180556,20.2486111 26.0097222,20.2486111 L19.5708333,20.2486111 C19.0625,20.2486111 18.7236111,20.5875 18.7236111,21.0958333 L18.7236111,33.2958333 C18.7236111,33.8041667 19.1472222,34.1430556 19.5708333,34.1430556 Z M20.4180556,32.4486111 L20.4180556,28.0430556 L25.1625,28.0430556 L25.1625,32.4486111 L20.4180556,32.4486111 Z M25.2472222,21.9430556 L25.2472222,26.3486111 L20.5027778,26.3486111 L20.5027778,21.9430556 L25.2472222,21.9430556 Z" id="Shape"></path>
            <path d="M1.01666667,11.5222222 L1.44027778,11.5222222 L1.44027778,64.3888889 C1.44027778,64.8972222 1.77916667,65.2361111 2.2875,65.2361111 L58.4583333,65.2361111 C58.9666667,65.2361111 59.3055556,64.8972222 59.3055556,64.3888889 L59.3055556,26.0097222 L60.1527778,26.0097222 C60.6611111,26.0097222 61,25.6708333 61,25.1625 L61,20.0791667 C61,19.5708333 60.6611111,19.2319444 60.1527778,19.2319444 L33.4652778,19.2319444 L33.4652778,11.4375 L33.8888889,11.4375 C34.3972222,11.4375 34.7361111,11.0986111 34.7361111,10.5902778 L34.7361111,5.50694444 C34.7361111,4.99861111 34.3972222,4.65972222 33.8888889,4.65972222 L30.0763889,4.65972222 L30.0763889,0.931944444 C30.0763889,0.423611111 29.7375,0.0847222222 29.2291667,0.0847222222 L24.6541667,0.0847222222 C24.1458333,0.0847222222 23.8069444,0.423611111 23.8069444,0.931944444 L23.8069444,4.65972222 L22.5361111,4.65972222 L22.5361111,0.931944444 C22.5361111,0.423611111 22.1972222,0.0847222222 21.6888889,0.0847222222 L17.1138889,0.0847222222 C16.6055556,0.0847222222 16.2666667,0.423611111 16.2666667,0.931944444 L16.2666667,4.65972222 L1.01666667,4.65972222 C0.508333333,4.65972222 0.169444444,4.99861111 0.169444444,5.50694444 L0.169444444,10.5902778 C0.169444444,11.0986111 0.593055556,11.5222222 1.01666667,11.5222222 Z M49.5625,63.4569444 L41.2597222,63.4569444 L41.2597222,44.6486111 L49.5625,44.6486111 L49.5625,63.4569444 Z M57.6111111,63.4569444 L51.2569444,63.4569444 L51.2569444,43.8013889 C51.2569444,43.2930556 50.9180556,42.9541667 50.4097222,42.9541667 L40.4125,42.9541667 C39.9041667,42.9541667 39.5652778,43.2930556 39.5652778,43.8013889 L39.5652778,63.4569444 L33.3805556,63.4569444 L33.3805556,26.0097222 L57.6111111,26.0097222 L57.6111111,63.4569444 Z M59.3902778,20.9263889 L59.3902778,24.3152778 L33.4652778,24.3152778 L33.4652778,20.9263889 L59.3902778,20.9263889 Z M31.7708333,63.4569444 L3.13472222,63.4569444 L3.13472222,11.5222222 L31.6861111,11.5222222 L31.6861111,63.4569444 L31.7708333,63.4569444 Z M25.5013889,1.77916667 L28.3819444,1.77916667 L28.3819444,4.65972222 L25.5013889,4.65972222 L25.5013889,1.77916667 Z M17.9611111,1.77916667 L20.8416667,1.77916667 L20.8416667,4.65972222 L17.9611111,4.65972222 L17.9611111,1.77916667 Z M1.86388889,6.35416667 L33.0416667,6.35416667 L33.0416667,9.74305556 L1.86388889,9.74305556 L1.86388889,6.35416667 Z" id="Shape"></path>
        </g>
    </g>
</svg>