<?xml version="1.0" encoding="UTF-8"?>
<svg width="111px" height="111px" viewBox="0 0 111 111" version="1.1" xmlns="http://www.w3.org/2000/svg" xmlns:xlink="http://www.w3.org/1999/xlink">
    <!-- Generator: Sketch 52.2 (67145) - http://www.bohemiancoding.com/sketch -->
    <title>Icon wrap Copy</title>
    <desc>Created with Sketch.</desc>
    <g id="Dashboard-Fall-2018" stroke="none" stroke-width="1" fill="none" fill-rule="evenodd">
        <g id="Polling-Lookup-[confirmation]" transform="translate(-419.000000, -267.000000)">
            <g id="Form-+-Quote" transform="translate(299.000000, 141.000000)">
                <g id="Actions" transform="translate(0.000000, 115.000000)">
                    <g id="Share" transform="translate(0.000000, 11.000000)">
                        <g id="Text-+-buttons" transform="translate(4.000000, 0.000000)">
                            <g id="Icon-wrap-Copy" transform="translate(116.000000, 0.000000)">
                                <circle id="Oval" stroke="#006DDB" stroke-width="2" cx="55.5" cy="55.5" r="54.5"></circle>
                                <g id="noun_Share_974648" transform="translate(37.000000, 37.000000)" fill="#006DDB" fill-rule="nonzero">
                                    <g id="Group">
                                        <path d="M35.5471204,21.8900524 C34.7722513,21.8900524 34.0942408,22.5680628 34.0942408,23.3429319 L34.0942408,32.447644 C34.0942408,33.3193717 33.4162304,34.0942408 32.447644,34.0942408 L4.55235602,34.0942408 C3.68062827,34.0942408 2.90575916,33.4162304 2.90575916,32.447644 L2.90575916,4.55235602 C2.90575916,3.68062827 3.58376963,2.90575916 4.55235602,2.90575916 L12.3979058,2.90575916 C13.1727749,2.90575916 13.8507853,2.22774869 13.8507853,1.45287958 C13.8507853,0.678010471 13.1727749,0 12.3979058,0 L4.55235602,0 C2.03403141,0 0,2.03403141 0,4.55235602 L0,32.447644 C0,34.9659686 2.03403141,37 4.55235602,37 L32.447644,37 C34.9659686,37 37,34.9659686 37,32.447644 L37,23.3429319 C37,22.5680628 36.3219895,21.8900524 35.5471204,21.8900524 Z" id="Shape"></path>
                                        <path d="M24.1627907,0 C23.384778,0 22.7040169,0.685106383 22.7040169,1.46808511 C22.7040169,2.25106383 23.384778,2.93617021 24.1627907,2.93617021 L31.9429175,2.93617021 L14.4376321,20.5531915 C13.8541226,21.1404255 13.8541226,22.0212766 14.4376321,22.6085106 C14.7293869,22.9021277 15.1183932,23 15.5073996,23 C15.8964059,23 16.2854123,22.9021277 16.577167,22.6085106 L34.0824524,4.99148936 L34.0824524,12.8212766 C34.0824524,13.6042553 34.7632135,14.2893617 35.5412262,14.2893617 C36.3192389,14.2893617 37,13.6042553 37,12.8212766 L37,0 L24.1627907,0 Z" id="Shape"></path>
                                    </g>
                                </g>
                            </g>
                        </g>
                    </g>
                </g>
            </g>
        </g>
    </g>
</svg>