<?xml version="1.0" encoding="UTF-8"?>
<svg width="19px" height="21px" viewBox="0 0 19 21" version="1.1" xmlns="http://www.w3.org/2000/svg" xmlns:xlink="http://www.w3.org/1999/xlink">
    <!-- Generator: Sketch 51.1 (57501) - http://www.bohemiancoding.com/sketch -->
    <title>Icons / icon-lock</title>
    <desc>Created with Sketch.</desc>
    <defs></defs>
    <g id="Icons-/-icon-lock" stroke="none" stroke-width="1" fill="none" fill-rule="evenodd">
        <path d="M9.5234375,12.625 C10.5,12.625 11.28125,13.418457 11.28125,14.3828125 C11.28125,14.9931641 10.9760742,15.5302734 10.5,15.8476562 L10.5,17.3125 L8.546875,17.3125 L8.546875,15.8476562 C8.07080078,15.5302734 7.765625,14.9931641 7.765625,14.3828125 C7.765625,13.418457 8.546875,12.625 9.5234375,12.625 Z M15.96875,8.73095703 C17.2749023,8.82861328 18.3125,9.92724609 18.3125,11.2578125 L18.3125,18.2890625 C18.3125,19.6928711 17.1772461,20.828125 15.7734375,20.828125 L3.2734375,20.828125 C1.86962891,20.828125 0.734375,19.6928711 0.734375,18.2890625 L0.734375,11.2578125 C0.734375,9.92724609 1.77197266,8.82861328 3.078125,8.73095703 L3.078125,6.9609375 C3.078125,3.40869141 5.97119141,0.515625 9.5234375,0.515625 C13.0756836,0.515625 15.96875,3.40869141 15.96875,6.9609375 L15.96875,8.73095703 Z M16.359375,18.2890625 L16.359375,11.2578125 C16.359375,10.9404297 16.0908203,10.671875 15.7734375,10.671875 L6.59375,10.671875 L6.59375,8.71875 L14.015625,8.71875 L14.015625,6.9609375 C14.015625,4.48291016 12.0014648,2.46875 9.5234375,2.46875 C7.04541016,2.46875 5.03125,4.48291016 5.03125,6.9609375 L5.03125,10.671875 L3.2734375,10.671875 C2.95605469,10.671875 2.6875,10.9404297 2.6875,11.2578125 L2.6875,18.2890625 C2.6875,18.6064453 2.95605469,18.875 3.2734375,18.875 L15.7734375,18.875 C16.0908203,18.875 16.359375,18.6064453 16.359375,18.2890625 Z" id="Lock" fill="#006DDB"></path>
    </g>
</svg>