<?xml version="1.0" encoding="utf-8"?>
<!-- Generator: Adobe Illustrator 21.1.0, SVG Export Plug-In . SVG Version: 6.00 Build 0)  -->
<svg version="1.1" id="Layer_1" xmlns="http://www.w3.org/2000/svg" xmlns:xlink="http://www.w3.org/1999/xlink" x="0px" y="0px"
	 width="40.1px" height="40.1px" viewBox="0 0 40.1 40.1" style="enable-background:new 0 0 40.1 40.1;" xml:space="preserve">
<style type="text/css">
	.st0{filter:url(#Adobe_OpacityMaskFilter);}
	.st1{fill:#FFFFFF;}
	.st2{mask:url(#mask-2);fill:#FFFFFF;}
	.st3{filter:url(#Adobe_OpacityMaskFilter_1_);}
	.st4{mask:url(#mask-4);fill:#318AF5;}
	.st5{filter:url(#Adobe_OpacityMaskFilter_2_);}
	.st6{mask:url(#mask-6);fill:#3DA751;}
	.st7{filter:url(#Adobe_OpacityMaskFilter_3_);}
	.st8{mask:url(#mask-8);fill:#FDB900;}
	.st9{filter:url(#Adobe_OpacityMaskFilter_4_);}
	.st10{mask:url(#mask-10);fill:#EA3E36;}
</style>
<title>Icons / social / icon-google</title>
<desc>Created with Sketch.</desc>
<g id="Icons-_x2F_-social-_x2F_-icon-google">
	<g id="Group">
		<g id="Group-4" transform="translate(3.000000, 2.000000)">
			<g id="Clip-3">
			</g>
			<defs>
				<filter id="Adobe_OpacityMaskFilter" filterUnits="userSpaceOnUse" x="-3" y="-2" width="40.1" height="40.1">
					<feColorMatrix  type="matrix" values="1 0 0 0 0  0 1 0 0 0  0 0 1 0 0  0 0 0 1 0"/>
				</filter>
			</defs>
			<mask maskUnits="userSpaceOnUse" x="-3" y="-2" width="40.1" height="40.1" id="mask-2">
				<g class="st0">
					<path id="path-1" class="st1" d="M-0.9-1.9h36c1.1,0,2,0.9,2,2v36c0,1.1-0.9,2-2,2h-36c-1.1,0-2-0.9-2-2v-36
						C-2.9-1-2-1.9-0.9-1.9z"/>
				</g>
			</mask>
			<polygon id="Fill-2" class="st2" points="-3,38.1 37.1,38.1 37.1,-2 -3,-2 			"/>
		</g>
		<g id="Group-7" transform="translate(23.000000, 20.000000)">
			<g id="Clip-6">
			</g>
			<defs>
				<filter id="Adobe_OpacityMaskFilter_1_" filterUnits="userSpaceOnUse" x="-3" y="-1.6" width="8.8" height="8.6">
					<feColorMatrix  type="matrix" values="1 0 0 0 0  0 1 0 0 0  0 0 1 0 0  0 0 0 1 0"/>
				</filter>
			</defs>
			<mask maskUnits="userSpaceOnUse" x="-3" y="-1.6" width="8.8" height="8.6" id="mask-4">
				<g class="st3">
					<path id="path-3" class="st1" d="M5.7,0.3c0,2.7-1,5-2.7,6.6H0.1V4.6C1.1,4,1.7,3,1.9,1.9h-4.8v-3.5h8.5C5.6-1,5.7-0.4,5.7,0.3
						z"/>
				</g>
			</mask>
			<polygon id="Fill-5" class="st4" points="-3,7 5.8,7 5.8,-1.6 -3,-1.6 			"/>
		</g>
		<g id="Group-10" transform="translate(14.000000, 23.000000)">
			<g id="Clip-9">
			</g>
			<defs>
				<filter id="Adobe_OpacityMaskFilter_2_" filterUnits="userSpaceOnUse" x="-2" y="-1.3" width="14" height="7.4">
					<feColorMatrix  type="matrix" values="1 0 0 0 0  0 1 0 0 0  0 0 1 0 0  0 0 0 1 0"/>
				</filter>
			</defs>
			<mask maskUnits="userSpaceOnUse" x="-2" y="-1.3" width="14" height="7.4" id="mask-6">
				<g class="st5">
					<path id="path-5" class="st1" d="M6.1,6.1c-3.5,0-6.6-2-8-5v-2.3h3c0.7,2.1,2.7,3.7,5,3.7c1.2,0,2.2-0.3,3-0.9L12,3.9
						C10.5,5.3,8.5,6.1,6.1,6.1z"/>
				</g>
			</mask>
			<polygon id="Fill-8" class="st6" points="-2,6.2 12,6.2 12,-1.3 -2,-1.3 			"/>
		</g>
		<g id="Group-13" transform="translate(14.000000, 17.000000)">
			<g id="Clip-12">
			</g>
			<defs>
				<filter id="Adobe_OpacityMaskFilter_3_" filterUnits="userSpaceOnUse" x="-3" y="-1" width="4.1" height="8.3">
					<feColorMatrix  type="matrix" values="1 0 0 0 0  0 1 0 0 0  0 0 1 0 0  0 0 0 1 0"/>
				</filter>
			</defs>
			<mask maskUnits="userSpaceOnUse" x="-3" y="-1" width="4.1" height="8.3" id="mask-8">
				<g class="st7">
					<path id="path-7" class="st1" d="M1,4.8l-3,2.3c-0.6-1.2-1-2.6-1-4s0.3-2.8,1-4h3v2.3C0.8,1.9,0.7,2.5,0.7,3.1S0.8,4.2,1,4.8z"
						/>
				</g>
			</mask>
			<polygon id="Fill-11" class="st8" points="-3,7.2 1.1,7.2 1.1,-1 -3,-1 			"/>
		</g>
		<g id="Group-16" transform="translate(14.000000, 13.000000)">
			<g id="Clip-15">
			</g>
			<defs>
				<filter id="Adobe_OpacityMaskFilter_4_" filterUnits="userSpaceOnUse" x="-2" y="-2" width="14.2" height="7.4">
					<feColorMatrix  type="matrix" values="1 0 0 0 0  0 1 0 0 0  0 0 1 0 0  0 0 0 1 0"/>
				</filter>
			</defs>
			<mask maskUnits="userSpaceOnUse" x="-2" y="-2" width="14.2" height="7.4" id="mask-10">
				<g class="st9">
					<path id="path-9" class="st1" d="M6.1,1.7c-2.3,0-4.3,1.6-5,3.7L-2,3c1.5-2.9,4.5-5,8-5c2.4,0,4.5,0.9,6,2.3L9.5,3
						C8.6,2.1,7.4,1.7,6.1,1.7z"/>
				</g>
			</mask>
			<polygon id="Fill-14" class="st10" points="-2,5.5 12.2,5.5 12.2,-2 -2,-2 			"/>
		</g>
	</g>
</g>
</svg>
