<?xml version="1.0" encoding="UTF-8"?>
<svg width="18px" height="16px" viewBox="0 0 18 16" version="1.1" xmlns="http://www.w3.org/2000/svg" xmlns:xlink="http://www.w3.org/1999/xlink">
    <!-- Generator: Sketch 51.1 (57501) - http://www.bohemiancoding.com/sketch -->
    <title>share / icon-twitter</title>
    <desc>Created with Sketch.</desc>
    <defs></defs>
    <g id="share-/-icon-twitter" stroke="none" stroke-width="1" fill="none" fill-rule="evenodd">
        <path d="M18,2.22558594 C17.4990234,2.98144531 16.875,3.62304688 16.1630859,4.14160156 L16.1630859,4.625 C16.1630859,9.50292969 12.4541016,15.1279297 5.66894531,15.1279297 C3.5859375,15.1279297 1.62597656,14.6708984 0,13.625 C0.290039062,13.6689453 0.580078125,13.6865234 0.87890625,13.6865234 C2.6015625,13.6865234 4.20996094,12.9394531 5.45800781,11.9375 C3.85839844,11.9199219 2.47851562,10.8300781 2.02148438,9.37109375 C2.25,9.41503906 2.47851562,9.44140625 2.70703125,9.44140625 C3.04101562,9.44140625 3.375,9.39746094 3.69140625,9.30957031 C2.00390625,8.97558594 0.729492188,7.48144531 0.729492188,5.68847656 L0.729492188,5.64453125 C1.23046875,5.91699219 1.79296875,6.08398438 2.39941406,6.1015625 C1.39746094,5.43359375 0.747070312,4.30859375 0.747070312,3.04296875 C0.747070312,2.35742188 0.940429688,1.79492188 1.24804688,1.25 C3.08496094,3.48242188 5.79199219,4.87109375 8.85058594,5.03808594 C8.7890625,4.77441406 8.77148438,4.47558594 8.77148438,4.18554688 C8.77148438,2.14648438 10.4150391,0.502929688 12.4541016,0.502929688 C13.5175781,0.502929688 14.4755859,0.959960938 15.1699219,1.66308594 C15.9960938,1.49609375 16.7958984,1.18847656 17.4990234,0.766601562 C17.2265625,1.62792969 16.6464844,2.35742188 15.8730469,2.81445312 C16.6289062,2.7265625 17.3320312,2.52441406 18,2.22558594 Z" id="Twitter" fill="#059FF5"></path>
    </g>
</svg>