<?xml version="1.0" encoding="UTF-8"?>
<svg width="18px" height="18px" viewBox="0 0 18 18" version="1.1" xmlns="http://www.w3.org/2000/svg" xmlns:xlink="http://www.w3.org/1999/xlink">
    <!-- Generator: Sketch 51.1 (57501) - http://www.bohemiancoding.com/sketch -->
    <title>Icons / social / icon-fb-blue</title>
    <desc>Created with Sketch.</desc>
    <defs></defs>
    <g id="Icons-/-social-/-icon-fb-blue" stroke="none" stroke-width="1" fill="none" fill-rule="evenodd">
        <path d="M16.875,0 C17.4902344,0 18,0.509765625 18,1.125 L18,16.875 C18,17.4902344 17.4902344,18 16.875,18 L12.375,18 L12.375,11.0039062 L14.625,11.0039062 L15.0029297,8.41113281 L12.375,8.41113281 L12.375,6.37207031 C12.375,5.63378906 12.7529297,5.21191406 13.5,5.21191406 L15.1875,5.21191406 L15.1875,2.87402344 C15.1875,2.87402344 14.4316406,2.75097656 13.3417969,2.75097656 C10.8720703,2.75097656 9.62402344,4.12207031 9.62402344,6.16992188 L9.62402344,8.41113281 L7.37402344,8.41113281 L7.37402344,11.0039062 L9.62402344,11.0039062 L9.62402344,18 L1.125,18 C0.509765625,18 0,17.4902344 0,16.875 L0,1.125 C0,0.509765625 0.509765625,0 1.125,0 L16.875,0 Z" id="facebook" fill="#3B5998"></path>
    </g>
</svg>