<?xml version="1.0" standalone="no"?>
<!DOCTYPE svg PUBLIC "-//W3C//DTD SVG 20010904//EN"
 "http://www.w3.org/TR/2001/REC-SVG-20010904/DTD/svg10.dtd">
<svg version="1.0" xmlns="http://www.w3.org/2000/svg"
 width="260.000000pt" height="260.000000pt" viewBox="0 0 260.000000 260.000000"
 preserveAspectRatio="xMidYMid meet">
<metadata>
Created by potrace 1.11, written by Peter Selinger 2001-2013
</metadata>
<g transform="translate(0.000000,260.000000) scale(0.100000,-0.100000)"
fill="#000000" stroke="none">
<path d="M940 1775 c-25 -8 -62 -28 -82 -45 -36 -30 -93 -129 -103 -180 -51
-254 -20 -532 71 -639 58 -68 103 -86 209 -86 99 1 134 13 193 69 50 46 82
120 99 223 13 79 9 352 -6 413 -30 119 -79 193 -154 232 -53 26 -166 33 -227
13z m169 -151 c50 -42 65 -111 66 -299 0 -174 -6 -231 -28 -285 -23 -54 -52
-75 -104 -75 -94 0 -127 87 -127 335 -1 174 4 221 30 277 36 74 107 95 163 47z"/>
<path d="M24 1763 c4 -16 162 -653 171 -693 2 -8 8 -35 14 -60 7 -25 14 -54
16 -65 2 -11 10 -39 16 -62 l12 -43 98 0 98 0 12 58 c15 67 201 815 215 865 5
16 -2 18 -83 15 l-88 -3 -32 -150 c-17 -82 -34 -163 -37 -180 -3 -16 -12 -59
-20 -95 -8 -36 -18 -81 -21 -100 -3 -19 -10 -51 -15 -70 -10 -41 -22 -108 -23
-132 -2 -37 -15 -5 -21 54 -5 51 -28 169 -82 423 -2 11 -7 36 -11 55 -4 19 -8
37 -8 40 -1 3 -7 32 -14 65 -21 104 -11 95 -112 95 -81 0 -90 -2 -85 -17z"/>
<path d="M1400 1706 l0 -75 83 1 c45 0 90 -1 100 -1 16 -1 17 -27 17 -396 l0
-395 85 0 85 0 0 395 c0 369 1 395 18 396 9 0 54 0 100 0 l82 -2 0 76 0 75
-285 0 -285 0 0 -74z"/>
<path d="M2060 1310 l0 -470 240 0 239 0 8 53 c14 101 29 92 -152 92 -135 -1
-161 2 -166 15 -3 8 -5 69 -5 135 l1 120 105 2 c58 1 125 2 150 2 l46 1 -1 64
c0 36 -4 68 -8 73 -5 4 -72 8 -150 8 l-142 0 0 113 -1 112 31 1 c16 0 87 1
158 1 l127 0 0 74 0 74 -240 0 -240 0 0 -470z"/>
</g>
</svg>
